# xmcd
#
# Track frame offsets:
#	150
#	15668
#	28889
#	41455
#	54591
#	73245
#	84807
#	94878
#	111059
#	123677
#	135443
#	146405
#	159824
#	172514
#	185467
#	200293
#
# Disc length: 2848 seconds
#
# Revision: 3
# Processed by: cddbd v1.5.2PL0 Copyright (c) Steve Scherf et al.
# Submitted via: EasyCDDAExtractor 2010.6.0.0
#
DISCID=ca0b1e10
DTITLE=Various Artist - Cowboy Lieder
DYEAR=1900
DGENRE=Country
TTITLE0=Kilima Hawaiians - Es hängt ein Pferdehalfter an der Wand
TTITLE1=Lys Assia and Vico Torriani - Der Cowboy hat immer ein Mädchen
TTITLE2=Evelyn Künneke - Das gibt es nur in Texas
TTITLE3=Kilima Hawaiians - Cowboy's Traum
TTITLE4=Catain James - Blue Bayou
TTITLE5=Gerhard Wendland - Jambalaya
TTITLE6=Kilima Hawaiians - Wilde Jagd und heißes Blut
TTITLE7=Bruce Low - Banjo-Benny
TTITLE8=Orchester Kurt Henkels - Am Lagerfeuer
TTITLE9=Kilima Hawaiians - Hol' den Rappen, Old Jim
TTITLE10=Golgy and Peter De Vries - Von den blauen Bergen kommen wir
TTITLE11=Bruce Low - Leise rauscht es am Missouri
TTITLE12=Kilima Hawaiians - Cowboy's Heimweh
TTITLE13=Peter Müller - Kleine Annabel
TTITLE14=Kilima Hawaiians - Eine Alte Weise
TTITLE15=Heinz Woezel - Vagabundenlied
EXTD=
EXTT0=
EXTT1=
EXTT2=
EXTT3=
EXTT4=
EXTT5=
EXTT6=
EXTT7=
EXTT8=
EXTT9=
EXTT10=
EXTT11=
EXTT12=
EXTT13=
EXTT14=
EXTT15=
PLAYORDER=
